<mxfile host="65bd71144e">
    <diagram id="w8HQixPsLlrU7MvBkYgY" name="Page-1">
        <mxGraphModel dx="1164" dy="629" grid="1" gridSize="10" guides="1" tooltips="1" connect="1" arrows="1" fold="1" page="1" pageScale="1" pageWidth="827" pageHeight="1169" math="0" shadow="0">
            <root>
                <mxCell id="0"/>
                <mxCell id="1" parent="0"/>
                <mxCell id="2" value="" style="shape=image;verticalLabelPosition=bottom;labelBackgroundColor=default;verticalAlign=top;aspect=fixed;imageAspect=0;image=data:image/webp,UklGRpguAABXRUJQVlA4WAoAAAAYAAAAzwIA9gEAQUxQSCoAAAABD3D//4iIoLZtGyb1/8eDrIzo/wRs3M1//Md//Md//Md//Md//Md/bwBWUDgghi0AAJDZAJ0BKtAC9wE+bTaXSSQioiEhlGjYgA2JaW78V3nl6y6cj6ME+587O4v4r8b8L9ZHmTc1+UP1x/pP/S+4B+sH+K+2/4j/Wj5gP57/Vf+5/e/d0/w/qe/zfqAf4vqQvQb8tr92fhW/sP+9/cH2w/UA///ts9Lv0//rnpS78vuP9l/cT+2+oP4x8//bPyj/r3uSZK+u7+/9DP479hvwn95/dH/AfuB8gf7D+5+KfyX/qPtY/Wb7Avxn+Tf4b+sfuL/ef3k43jbf9V/0/UC9sPn/+M/s373/4n4SPgv9V6DfXf/H/dD9gH87/qP+Z/t35Ee2b4LX3P/b/7r3Af5J/V/+X/jP8x+5v01/yX/d/zX+X/d72y/n/+F/6/+N+A7+U/1n/g/4L/Pf/P/Pf/////eF/8/cT+13/69z39ev/sG7iQEgJASAkBICQEgJASAkBICQEgJASAkBICQEgJASAkBICQEgJASAkBICQEgJASAkBICQEgJASAkBICQEgJASAkBICQEYkSn2mg1MiyOfzMJBsbMVXvvoZBCCEEIIQQghBCCEEIIQP2l5qUfRD/KYXpfTUhA7KYfQuo1czvWleiLcCHRpXsHHO8JAQMDSNup2XiahRsJvkkxXa4GoTMJASAkBICQEgJASAkBICMcTuwwT8gkcnaln/ACTOLsB5arMDbYFVrXU+SXTRDUEfA+VtsFZ6a/rquV6isqhtlyZOssVTLFcEah+GMMYYwxhjDGGMMLfxdcOE0DHODTr4FywbTk83F6qrAD2vov6Y+V7njAlm9M4O/yYQzUZ5d2MFIw2uR4Mb4DPbN2bs3Zuzdm7N2bs3ZuyXzVqev/7LIi/jYkmRfa4bbJwVVj3c4IRL91/gOSlr8wgYwxhjDGGMMYYwxhjDGE6hnDunIoFCFWIzHI4Sa2qBi02iY+QlLMOZ+LTj9lwRqH4YwxhjDGGMMYYuv2lK3xCf1cjrtHBEJB+125R9oKdaVQ4TNQ3RIB/+Hfjy4cBIAnZhIFyUgjUPwxhjDGGMMYYwxhjDC2iw2FNzuvFgbc312VnYRm/i0ipyDaZGXBGofhjDGGMMYYwxhjDC1dNn8wxhjDGGMMYYwxhjDGGMMYYwxhOpSKkTUYky2oghBCCEEIIQQghBCCEEIIQQgg69c2bs3Zuzdm7N2bs3Zuzdm7N2bs2LBfliQEgJASAkBICQEgJASAkBICPz5xxICQEgJASAkBICQEgJASAkBICMwYhxICQEgJASAkBICQEgJASAkBIBmYiMuCNQ/DGGMMYYwxhjCYbCjoN3S/VAwDiHiEJASAjMGIcMLWcq+KZXioFonXuM1Q/kaqHy+cf/LHF3Itr3WueZoRglPVXiF6SJASAkBICQEY3S8mh6J/Y2fEDhuBmlGoZ1h6pwmVZDplD2zGofhQclPuwJPgAZMM0PCpilpO1zbmz6a6Z1U+20mmdTKXVTcp+GMMYYwxhhbJ859eYaV6Tgs+3bwGAQCB5gQcigz8rHhqPwFQL886OAP3zVkzcIUmUhTGlO+KNAIOgVdcZhIgZHdk3i7M9waRhCteuTCiX8BICQEgJASAYvWhFUDUTkFgrs4//11iyF/RDQ97Pq44ixdN8j0e+ldwmgujIqhctBuJazW4KfxIbRj0McCtiAgu71edn+tRIVxO5GL8ylVyFjDr+K9gkehtt+WJASAkBICMJlbTPD0/40/23/WsmkMIaFzruL86aIZrPTIy4I1D1Vvlg7vjsYI+Ifgr8GpGfzwgnp3sajvXwZ1/x2MEb8VD3Iy4I1D8MYYW2RfXYAlpIdVxWCPG4ikmhweh/NFe6jnGMP9aASREdyhQh20yMuCNfX2zmnrzUX5x9AhpRym0yMuCNQ/DGE4v6KWs59jJfBwZqFGKMkx+FCERuzdm7N2bBGZC+2bWpnoMfliQEgJASAj8q7TWWv7ZLcYNq8KMfr2yY69kL7tLQe3bui33NhtjWCQ068izbgjUPXFKpY+Siu03EjJAun4dPtdttpO/pLbzwV7my/LAaWjj4AQJWBjoPeZjDGGMMYYwnYzoayNxTCKmufiRsnZMw28bYZ5rpR9b6uCNpyGSu/xZlDwhG44iYmaMsZgCCEEHTflAfTSvAB34bS4JYZRRXieviuL4gZE23IpkF1MKpb78vN2Dn3+Ob/H3BOSlz7wbxK4FNDaA5VUPwxhjDGGMW24UwrZLEgJASBTxM03BGofhjDGGMMYYwxhjDGGMMYYwxhjDGGMMYYwxhjDGGMMYYwxhjDGGMMYYwxhjDGGMMYYwxhjDGGMMYYwxhjDGGMMYYwxhjDGGMMYYwxhjDGGMMYYwwoAD+/+4cAAAAAAE74ALYy8WQnk+FKdqyxYK8d03qgY1453P6pmp04mbxCpUwkO2efutWKP+qV9GiGfYcU3+oZroLCekOWaTeA6zBhzTn05iKQXtoi8R/0jyc03F6MN3LFhNZVc81++UEf1hKG5bgN2DpU0auES8cBsXmUqx+Y3V2L+/WHUPh8SeaX/ae7OHuV7jjuWFOjl19iIps3qoGUcoAxx/Ujx0h8BXwY/mCXpcaZQC/sFgq3vpzxnGzQccd52JP4aTUYYTAXfIhrej+wbK2OwbLmT9//Ydyxu/52Lj+KGjUmTqpInaw80T0k0ijy9dDnHRZpTilL2Vqb7TFeKYgbSed6oQxflzK6KODxGpBKKW+vpNoZddwIKJIsrPntZo7ELvhtxil/Q01iaerBbed5cad0rsCyzuab3YLmyfKLxAqAfQY7mXAzz9wYJuJnGbExpWWaqi3KMBmIN2bsujtLC5kvU8Nzz/TljPJ0bPinJk5cBAg2Fb/I5gWQZM1XWagOmiBk+F1dCeu6DixEuluHQEru7gSueyzclBKHWE+5TuYteNKG+HKu6Fjai0nBlS6DzScsQvkDYS6Qhv85EOEt77par+16qL6zFdChM8vg9gou/iSn2+fsTzTBwvRf4YJouqBNlvTxJnP1XY2/UAXyYp+DJ6TrfGCvq4U53Cukgng63vZtz2+Rvi6pVlyHn4mLYF81V0kc7xkY8Idkfa2V3b9968JpySdZzZncWLBWUuTny8CjsSjJT9yzIYLPLNbqKq8zF8AEOjaZWKagUPWsS3LwUefM895t8D5pPZNZS+3B1LUn8wCA//ayvqiwQUp2qZU1LeJfqTMUPRgbxTQTV433p6jsnz1AB0EDzBj+ksd00DwA9GGNTBAI5q3z6aHsEINScmCvhlgV8Tn2c37BZU6FEzOKsf9VJrk7kAw+UIN2qJkPemmfNgkwewSFAuWE50OXwAgrOHJEo9ONAizB2usWevjmAoDXOKj5BGkpOBRlIKCbLZnw2LEWcNeRXhB2z/TFCnM/1xsBpEdMPc3IeRZuABCajcyKLx4NS0mdmIMcf3He803yGlaM53d+4JscTkm7VYo9cq2OykatxhhEhgwhFjUhf5h0Cbxs9tM4hRAtBgL3pxY3lu3F0zIWx6tvkuycVzQ6l19YHOHecbfvMPO+2zjGxtkA32Zdf3u0N5fmktxa6AyPBx7meWQ082i2sEd/1RDLQBswnyGBHKDiaiuIQm3/P87oNHaqMVFuLJwi4KIVfTLJHJdpyHh1C96ab0aMY0bt3C5BIA4eNl7Nq52cKuSJf7+pG4ZtN1cDE9p5CkoonU09AaeE8UOiNuobK+/UNZAP8Fqbux5QoBADap2A6G7eL9/x2iGXQ2ApiLiL5OsCneyPBx+S5YbmvRABdcoxAiqAzLKPcMj9oiKxzlQ/X4Zeu99LpVX4i7sP8s1Lm4pe23EZM6dXI6szKDvcEevBpgs5P4jYVEWDSvM8ECK1s+GTVDIwXs/+fivO/FOgeiLjXzpbtj0xqLPVDCQOhAnue0m5rsUlTI/RNQgtG1p4T+IO2qN2VC7ucvws77ErNH14aypGMX4EFbgrX0tg4P7pnQiMsXkxsEeiTef4M4Ol8ZC+JkK3H7neRh8GaaVQdrj+2ZSTDthsKRJyzm55krnzs59QR6bW2dig+fVE8AFCLzpBUdzbVk7BD8vrG0XLk66LKpz+Jypl0GgFdCa2XXP4ZuSuyPI1w1YC9qfUs4RBmddq8LWNAJWGZ5aKTZxubqoJr4X1p7QXAwCBSZPcE8VL/Gly12Etmdxcl69lsW6d9pOSdmzg9MHqLY5T8SSpvoDvxMqetzKbs79bUprBbgZSCjFMNdyRpw2XNp2e0iAyWqb1/mqxOCyNe4AusI0u/28HNW/eAEQUFhjU5WXK616t5Uf5nfAS4upRq4cOcj2+TUBliyyVnYRjm7BpPxsC4erQo3KiN6asSPxSPcAlm/RbTogaluN1Yq+Aczu2zngRMFszFf68txleS46XagAXDYsfBeb/vp3/8IVnjMH/fzm3OA4Jm2q0iSUbiiBPr0DRvANugLBVTyCwkMhnY40wc6WUTMwkS/6opMjIv4RwQvejUNzcKa2o2FXiu2s3OuGcPW6LAIUFJea9EPST39GEgQMJ857ZR8lkd1V3+256mIj12msIdcYuAlTfpXGJTylmJf69ME2U7qyFWmdOj0Ga5YFwT+PuWknd/JdK+y7obmf+RBHuuVjQ3/3uMfP7b7vhzOrT0sIWES4X6jnGt3Akat2frgQ/NBISko9mNJfwetfjAwYgBdxzm3pEofW9HGU3oQxGpxQVNMzTs5rzWDXn3AOyd1kB0xew8jL+NykHh/zSNoX13aVCxhi560sCmuCu9NqBRU03moLhgSD23wg1xV5Z81ngBVY33p1p5PWOxH1AqUAONsgTMbhsDlJOJV8NtFQfWiphvnsDRqRbrmMCAX3zCzWLO6ATFfxPlZWJkgHHGHnMWIXE93QQCz24QKR9IkdN4x9RKu/pmeVCCJAVAwN+UJvV72L6IKQNwIZeaet854vCgW1t/ft0bqJRzJ/qacMlU/11V8MRfLtMRc/UfmwNYFlC8iBGqttNMzLoMDSIwI6yZ/MSz9PUfkHTTftC3y4lV/90clm0TLg161YWVJeRcCa0Fy8f8xyWfy1fSPsm07iJAjYY+5wzSQ64jPxxM97P49AFAbcoyUp7+AaPH/t6R8PLqK+xwD2AoJQJMGwTcyZre3+JZXVeYs1JRkj2oynz2NVV3r5jPwLaWE5ZkPS4bI6I/H0q1goWsqYtAZ2L4frj+cYFB5f6U93VqD21Ex45AtzvSi0/9v08Y97sJv0Sn4na/2cbf700D2b8AfuDoTUWUsyh22/UkMp5HnMXR3gk2YRj0uiuP/nVatyjIMQ/k2gfxEhtww0KRBn8dH5Psn+zeMOGP6K2weF1Ug4jaMcR07n5vz5xhqueC2QYYg97cec73gBn35Ev4dRN30tnYAu0RGl108+zxX9HSzqf+YDCjfEMHK7Mzi395I1cYln/g/qsRh3Hl//2Wq339bx847zgSskX6BGVGZ34VoLuvVWdXytADrOisj2zdQYUnkCE/UFaBUlmm9C93tkp2C54C0Xrrxp8u+5BZ/WBOBGpCRG8FOMTZnyvhNTSRG10+Hyzh6uhr3cAPfhnF+GHq10nSl9QlOhnk+KHMsNoutYJmltek2b2GqCGHKq+iQo+l+EcxgQkTbzahVxzVIDOpO8g7Q+vDRtDBcNFoKkRozS6FcDaz3ZxyXtx5Fr1/vkWkSvoPsb64MYhbZMr93+ICyAi8QK4ImDjIW6RmPh5/PMRoYQRJQLYKRl8BSHFOBxkxy6c2/oL9FlplZW11ZSloINdFUPcISAFKmB8V4nRf0T1NPseAJnfrzeJNvWDLFQggYclUZIL4AI9mwF2yd9Jiuk1NM20aTuUHH6qjmlzDUdalARIPKCpcaUnhtRSYhtvyGU0f/GVlLPQjHfzpYmROuJElSdt6GquYtl9CrHcsJw1gv1+PpYnerqTVrya49I9eml8XVXA+/BOe9KMEIS4A8vpAS+pMvCscFXujCDf30OK4tYPbwYLlBFKrCJzblbI1eOjowOpv2bIOXD5xXrmCEMMUNqj9BqmyslAQ51KqH4tN+IymB5ALgnfXwvqa4vzEfwj81Y9vwpoP2/+H/DN5+JPRG7zeqvcEPfgjK+5juTUYjYelB33036FPuLgOO8Fwj9c4SyIOPJFkMlVEGAVrpKV5neC8MziRRDTjLzvfJ2zd0BieH31QBqKvbgitWKAM3hbgAA2vps2xpHHlBPi4Ph+tMkbkNAFWvvEKo+nsc0YccttYyzcWo3By5Nv2kN0S1d2p8PYB+X7nynBiEZWP4ljdUVZcGYR3eLvj1y7Rlb+yUrzdUTkaCo/J73EuCyGyfXAWxYMOjZG0R9SIA60Ok9M/AfpP41BCbEoIdgvPAhQIXu67k3J7X7tLCR7gdiVsYWRe8Z0m2Lus0n3JlOPsoDAgbiKZoQiDYp/KtJ3NOj3VIw+oqg86MdvK3pn3YAEZD+mA5PtnvVW/XfZEAXp/cQhJH3ErDV49w1Em4/BmKNwtMxgAEADZuLywVnJlZlfPVt5BIptXPHUeckHPUuTevk/x0oYgOmrZ7sHRcdmBd4CLIVeeJ38lN1IFqLoip1SMMgDoQAAAAAAAAAAExT4Xh8ofLNjqjpHY5JvL1rhGWG6wIbim8Yq3rJNUwlRXpSbBV5Vnl5WLiRfku1T0DT2AEPQdREzfQhSPv75VtQw/rTs7P615TkDov6KuN4i6vyeTuiYWdzk6qEGtzvWNJ+wcIFynUXPpgymKagBFoAL4U+sje0sLujrh7udVPq94IsZYTMBS2mUQVb/oBKqH7NgAGa2v7z+Re6lHRtJtGnQ+PGUSu7MJw27yk6YbwJtTsJrpseFz7dUia+147YeUUtau9lrKxjfPEAOo093XbV8EWodN/wFptq8MEBGFJ5jvi1QvOwSNhmnAq+0uo3T7o1gcELEotyvMXzcRxShLmytuoD0T5qywOf9mfWhA4Hf4vbvVdysQROG9G3Yo79fBrjNk9DECUdgstcfgDgVMDL3Nbiz49fAt5pyeE0D11Uq/g7gJOlMpq3rkH4gjgVnoVuHvOxfePs5ShGBJt8vsrxU2Y1YKRdyodEHyhf/L5Vfh5TygXcRiloyjfodRgTP5CZzTtDccxXGP8DIifQuxz0ORKB6ABccJ/X7nwVI9pGbrfpLnnvSh59Tp3ml6vnXGLSedRTDK2lIiNIj3+IRizD/oMGnaMnBjQkYneL9aYg+PNN4Po//yvo1ax8ClnsS2zsQpSSQcLr9kD1O6HKO9iTjXdDObodRHYYP/hHa8W7v6FV/w5tn7Ee4Xr774fS1V/kKT6oXz9hlOC3/5NTuezbHhEyJxyiy15F3f1tzYB3ldL063hUJb2NdRzAFNfBCBl7GPbeWF5qfNZUAwJh3lgMnYFgt03RLMeDRN06z75gtBMulQrsp1objQDHOm8bZr5lTNPldb4e1YuWlu0xgzTHGDcTHS50eLN0e3E+nMmpYH3SEdAgvIVx/DMOD0ZTcAXG+69XKP59fJZrKV3DvVTh0+mju92WUjkttF6mbO4XmgqG60xvISNmZxg6CZavgqVOhcMVBNyqK3vSSXphSXDZfakiO03PA5i08TJnKt3jDP5Yt9JQA+fcrZ2/z8nb56EX9EBgLAb7zFAjC5T0ZvFcM2bBmnvoctXnEgvBfQtdCQNK77j9LeCZVA1TExDoeCmZJJON6b4Ic6rOeAaf6vESY8jSAfzPjTVRlHVBMEHb4kWQp+RQKE8MiFEbCmsOaxvEBtOqbq/48KPzZpCVFKqbBTm7IQ3+CJtppdFP3EDZDRVRFlbw45HFKLqCltlkZKZl1/tz72SbEjDZsLolf549mJSfOaEWmdFx4xXMHXzbtiuPjyq3+EoviskBw0g0KMXbB+zzj29UGernrrz4ATrZySWWuIWtvmiUOIG2W1EMlPV9lcSNbZUu3T5BI2t8wW7hYwW3f5SxjzrlA3+9Zg0CnQUstrcwzfc7NqEogFYCVijJbesu2C41GTTbU9SmNmVc6KH5VOyhTiUwvDRrbJABrCWJPnuRYtMBnqvgZMysa7UbtuFN8+nsrZxxcjBlWXu1CqY1wVjAq6PLG1FMyCaf4bS3R4nS32Zn9Xl4LiPA9XaGoGLwSqmUQqTMYmN9ICVt8y83FNNVK+k2wNXm6kzNclOf6/L4sO1r8QshBpHAQIl1pXksRnb9gZ8I0+YG2oVzpqwcrgVTD1Hm7XhC+QNeMaZHLtIVXcB0lkYkciVfx5SFKKOQDGizhugem4dZAhjO9KzFX5Y6BqaMrND+qbqfGIDdn6tV6pid9Z+zAYEC03Kjgslq9PHSTLxz3ffAI5qfyjGJNMYogD6UwxCbn67sVoTLrjStvesxEZCSxIyt3nvB2fy/N3+HHZfp7erU3/P6pe0Goz67hlrfzYleU06WuMMbQBnBbVllq5XtQLzA0masBsK42p5Kuqm0Hm6KJFQGOwBoF4g5MjLsVYyvBRT6QYq+MPdbNU5Us5lXigYqNrh9Yv9Qbha63ZC0DrmK9jksSl22oWNebOgqUWqRq/iWW5N9r1osU1B5kUV6fsvrtMW+h5LkqWqhbYyMeGJb6Nr6pqymqNGTex+hujy2CUx2An+E8UhfhdiddAYilMLDL415aVWsYj/9oxPCXTUd9tR5/iwVBSXEQL/JMamZzyYe9f/F19p/671qUrRGe4MIvtaZEbnlxdY2oYs7vfqSr74aZua7BaWdozC93IWNilss9g2lF8ags1YQOeQ3Umu3njjuQ8ijnMzbP3gONnKMMNhhDhMqIpFAV1//p1WeSrCvQVqlZy+kR5pZSgQ4Y+X7TbyYsGloKrnbVhUf+1FY+fL37Qr80J+19nlZzMnn17DvJrOXthCGwa0z0aWgOJ2ZvAP8a4IMgGjQWFEGjxfvP8Nj07DngXbnmutAIgkG60POAlh/1Z5rrYSBftb+8XrupT92WagOqrw1V1JPCQfytZO6YQobrNtYEZW3X9DOkWDbc4/rXzJ5qNR6uqOFSdQBHnOEzmSVO1Ukqq9v3/NE0Yl2jU7xvNFWzziLAuUUg+ZT80l6N3Nhyin59x1gi3FH2bESFr8r0XPvE0r0nidv4bhl0x9BBgf4RFsd6meoE/rNYndoDWvt5pCquGJzpO0ep6zDxybHsKeZ6e0wH0CE+MFqAHSP4+c9tEKx7yOF4KdQwjxZKkBB2jXyZRX+PUKw1cuSbN3+Iv1qp7PRTAfObiGYDOYzQn2HhMNZM/uXOtj8P+ZqA6XrGklBgXAEzYYfe+NKXRjdjlHJJ+MQFGrMW3hLNv5sacFmlXXTM3JSu8ydQD3vRfB9OvA9wKrQU0AfZ7bMmHx09p+9SCUSu/l0NmsqYTQvquFzrOMc00W1w8MwNpfsO4kGm8fCYxj2opusS/QrivlBlzsnNTYO41UPmzRh27gUEN6xbjJ5nDXKRcVKBd/pUH2Tg8mU+3JLaxRsQBcMuCRsKbdV+VT69V/lKsgf8ndIwVZ6u4kWb1qHvcO/5Tma0230AwvhN/FyWO4AEVdm7fOyjDkTwWQvR3Xebf5azKir0rkIuoDx3rh/ZuACsuFvv4ZY+YA0vJIV/VFcyxHvc9H41mwQ/ipz/NqGAxao9vUkqNO1fBRxn5IN+Hl/TZMmV/25aR1jpHZTHgc8z9hbh3n1gMM2vwVjySQPoN0hikz3F8aoI7/NCO3xrRIrMiGsCv82CuBHEwsDHlnMxr7VgJhxadcHM9vGuXfCVHZbd1yF7MCz9sk0uLP78uwUeWBjKg80rweM3JyI6coXqfbS8FLDtpg/Dom3CqEV31I8khOQ/8dbi86GdPYoArPVEvmTPzT3QxyJna3DSCIR5ZX6xGiWOHp2/NY/3tn0BgapUZrPm0sJhbJBm+Jj4mDS2cB7fmtkelKWYqWEERwt4P/u074P+ApRGhqWrS9mD7iqCCA5FvOsDp7M5JBnYZoAhnUAX9ZTImGBg/cukcjF85YxFuv6bxlrhpf6SPL2D0sPEMzSj/rzK4hKS9tIxf4cfb0NZDjnmMRHk6FrF7wU4PcanBnFT1/Ezu7gWzsPiOts8/nF9WM1ZSNZx1YvhgytCtyMqoNxi9HgUyMWmJp3hylSeh3AAXkmGCZwOW1/WN35DGaZ+URWy4jR5EhKoyyp9GvEFadDqQiGSsgBQveYhjhsuWuSKSGFBQGeMIQBtCXwrz7aHh7/4nKv2zZEoh3I3AEUz3F/HRW9v3X+pKqnuHzVOK2UIhEo+RizerECTO48txlmndksIKVwrWTw0JPsv6Uvn3ImHzrgcAW0zNRfOibtoYJICb48DQjymFeHSuuE61XENqD5QPHL7iIKZYuflyG362RAzCUWYp9sT8NZ3LUPaI2HKjgP7mdnG48Jt+6XmjrqkR09B+kaL7RuQ0qrX/g6IbfeViP1TaUAcGIKwOly+RjicH+MJnB1pAy5ZG3y+RjhmSev407zhwDmLsnDz74wgZQu0WvqU0Tef+9IgsCZAp0yjVDOn53cPRbvemT8OtR7Xo/Ri8CEnREu2NrKKWLxRe7PTT5dKLH0onvy1Vtkx2tvyAZYtO1cm5Cn0h1Zl6Mm6UIAAdpkMu13C1D65QrMEtZFcJ9TdwGwInZV7dCKap5uxrxY0n4vUPVrobrn51w7dvWvN7LZc1TXkHYYz5z/nHOHSRk4jo/Nu264+oeTGP+MVVsxCyBuEUID7hxJ6LkRBjCI8tCVDF1Q+jVocOhXoW1uH4Qp8CvZO1g8AamFlz1zX83wrfDQsmwUKEyCEkpCg3DJmQsm6nUJxQpzZXgERTFBHnpHKhSKtRNi5ziPaz+IknSa+tX5EDqYV0hnheBOz8ug29KyKsy7/W5Tf3LB/ItZ3oLL/XIoa/umtvh04lApimCAk6uUQ2pUCpxUg1fvxXt0+kjDF1bGvBS6nWsQDjAp9Q/0pE+FJhHw2aom77aaYAgq/lRfiGK3zXRVXm5S3Ln3cJd+gXOm0J/zB6iu91uqMO93xC9u3Dc3BJEwv+dv3tB80I0sGgBN7rSWEm3kwb7z9Sb+cWtAIFZBv4Sfrmp7HmHIhy8jUx/jCZxAnPLNmv9PE4+ypXWqtF8O8J6R8fBxZpPqtNnpj9yyTMlem1rVXzqvhMBRTj5vvSUU1iRZc+N2O4F3ISR0+0/AqsAHXM57U/nHPXpcMdScUoRc8BtHUkXDTzf+8vF4KdOiAetY3l7i1XQvAjRRAvCf1RJFCZcp/Rq+VWRbBURcBe4FG7SpfhxCGqIH5zJvk7lXtBw0OemRAq87yBS6w8i0HVfHiuVrj1gZV2r+/z4dFC050/lWairuNZOCtgAxDupmf3s26fL35H+iAh6zSRuz6czMaGvXvofxhKRc17AgFYN/PKCj8WST6G5XwKpM1rdZ6a2UgYg6bpALr5eq7hpgVe+U/zX7cUCSAZTuu3AFzkeEAt+/KIJwzF31ERq+rjNMTFcFmE5k9yxIz5ftXHYQcdo3eK+LjJ/Pk//kKWZ+RvdF4TiP3u47PBVrdnDTaRXfN8pDUNQj7uAMdjmpLUtcVWAJnOAFv5tEjZvylrGp+Opa7OnibKJi/+WSXiAKKpZBcpRLYKNdLPxXC0m62U6h1FAvi5HzPh/9yTVR/kicYXO3/eGkdxlZX33SAPKpRnrfbBR12RJ4FIhQIxqTXzFlDYnSv7gj03UltWRwkGrUSAbJeCbeTeLI+TCnjBng9HbNNzB5IHFKQAWEHNvP8Chu9wAli8ODJ8Pokyc74nUIH+aohSoctQPukEvmYx/o+eevv0WyLYBPg9HYRoXlMtqepq7x3mwTuqSIOqqB7o7v5jQL9xoY4J5ycoLQr/BZl4Tm32c4dejBBcrvo6m7ue2i0Ou78lb9pO4rgUyesFb2czBRiXRiPxxilFViROk0PqcdU5eMax0E65eycQGaTBd7yNReKV7PCbMc8TMtF4R8UrhHp7gfJslQuGP7ya1yCjH7jf81KXoE8fmzUtwUuE+SniMTSkOEJdWwJVS2Pa1FknsOFqcjUhWfsL8MoevKZgOmOMsc3EZNkbJTV127g44KK6inxY9G0s0vAByZc4Jb0dP109MjeVVQssPjqTas6YnaMz5pbry8RU6IKuvTMLpmP13KHU1Oar/hktC/z8hnPmKYabHgTBOHprrZUOPqk8aU523RmwcHgGL4rX5oYca+lmbff8mL+kottV73J9ny5ZfrlaCv8dbYa9v9N4FYWIi09yEhSO5z/DKwojO1pRJneyafFqdfB5bk/wkD9stzNSf5Omi/yL4fmZnboFBXzDlR0TY4G3dyR1wfHOhtOn5M1n3D2eJCYre3a/uDpSPzsPFhXn79bfrtffRnioll2dHNU5a7/oUR+UZZctxjtbPyZZBPx8+A87mpnJ0sx1nUAPbz8FX2LvMDTt8xQXPl15JebD4hONDyUvGWIfyoPzZB1gw4D7L1ZJ8PYs+bDf19IWmo/BJAMFmW6Carohg6gLKGtCrcCC2mhGvq5rY+baVSpyBftalC/Ghgts7jt2a/TEdIM2xj3oQsvKSKtSWMiDvhrikzSEkxlk9Gwu7I/QFmPHIMWH9KZNm6zKIZODtYCGW2jAS074yfzDIyvwd++5AV76k2n6HEIj79QtIAIho0ieVqS8bezDmGgMVA3D0oDiqh0raVw232hLygEQijM2CDqlpvTPBGMl8bKDOGcq6Dj/Ibzu57NUHqsBlyvdNCKCCWWh5ZJUW5bY4TNmLCzeK53yyELW13/+zJPwn4om1V24qAFIDbEx36D/O63KRKh/nbowagU3xcUn4ScrEwxkTYWP09jc0YfcSGbKXrbuEIdz1R/mRk/KZyQOpyE27TNyatQA+ldG9NOjFF1ZzYxnKGGq1TBJmtsd4WLXmmicMul9ZPWd7bGDlsdakwqkcfRkwktwqnyBV2wk0gfL1WbIB9hn2oHoMJYXTeb9BEHZTR+Kn475JDhfHzaiy2uDjKXn0NtwW5kqgATsn7eJdkMBe1ro8bkESlIkWY6C0DNjCYgDSHG+tbcU3T/AybhU2fMPJcKA/64ldqsUeC+GqD1Qk6HiiRMNfPFr5XJ+w7KovFcX2AG9Oh279IJ9om4fdk1DHXJCUuEyxVT5XUYoxPrkdfY1e2kcQPrJPgMx9Sk3g/JRPBV5EQY18LCULUPNI/2qMWh8AJUXXRG2lDhcKu08YtwEQCz2pfjY5YxKu7x8vkcX/RZeeK/6N9sSATG4gemzRI3soNaeMpFqFmonBgWDbcbs/S/Ob2wEuajDlso9JHQnexTKKSVq4+QdeQEY4eQ39zAsLgugfozwvi1OebvsmeRVwzkqwki0NEsJ6xAEPphL5v++BaDEEPLnB9T+FLlfHo154Smb9Wkqc1pezWp3YtTM1dTU9K2++OWtPWFmmTXcJV1BrrZhfOG/iYuJ7DsEbtFaJAX2FxMvX+yEVVFD4xC3/w1kOSMy9HqE7KkiFWr6X+h+JdWEJl0ntuBwe/cRNaNyjxk/O0Pw3AN0d0k05NgjRWsTn9rvm7ITdXLwa/LRm7AwT6ryDUUicirw03YS/0/Ptri+9c6L2+V4XqPmtWAmDrlXOCrAMqeyjenYao28KQK0/tfzDsMnZl5sX9gMQhuh9E//wSmmJKBBXPAUgd7ETSUJGchAqvQpHK6e8htHDWKjDm6YlgYyWMNq/7mLZ9DdC6pwxpDVVOhnK9VKAMbk4umgip1b6CglCmh2oW/4Vq3CkBWIt+G2UTYS6t/eYGHYK5HHbnis3UtVfJXJDgRDL2NsF0H4JjYVobuexIVbsIsXAcsfD/08/A6jhBnQbWkEJYlrctxIvO+UgptZeP1k2jO5Ha95iIX7UTFMD23bFv94D6ehxZfJmCB33jjVEo+keyp86bNALgcKt29RxRdyElx0yFlPxWIVYYKXZ6OCP4HvBK9slvGbpUTLRElYHcLOZjfLjSTNXOLoDO5xDv9d6k7k6XtNy80a+TnjBsHz5O8fGQjsnmciCRBo1p6wC9733FozyN0RVdjHCirtB0CSFq9tcNtVIIWxKuwFjAAkjZ/4PNrsN4nMBXVBAHWP8Xcu85O5PVeJCNd08lxJ5ejEu93Sk9AF0BWsYE7P6dfMgc8ygGK/TnnQe4R63ig5d3XJfD2qa1UokSt8FqzUYABBoYNdP3czIdaXdkAxZ8D3bQEwqCJvAkVR8geaWvidqPr/yFmdqQfKVeRnD4gCvissQU0fi7ehz8twCFT7E/0JcwCkiPImUEY4OaNkchovolSOx80Wvluib6R1a9yLBxlplspSPNrcQATtxuXe26+fXTUPjkH18OWYHZ8lkSYNkPaMiQmqzdflB79NESVN6kUPtZrQnlodO9rG3PCQDbkXESh2wATzX0ECgdTA09S/1EB6dRuz4o8aQc4CKZMUpfLb69SyWfxT0YS7Jpsd8Vb8QSecX45WCQb/Iuf3eM9V1HkHipGlCnA5hqxugVfH2azxuM6LBr79Nlw13mz4MaUJ8XIHJllU3ozJ7S3iHdKYzXRA5TVp2Ie+er6hrUCIEWWdAJFNwluf98APoVoNq22IAqfZJz4ODQPA5YfUDUO0sGZ/84/Afry2XdYAOUJxiRWjiZgpO2b/mXjTMNlDkqXs5lAeZgNuxPTuAFGVLJK9Z33YbAhqlaaWsJP1/4kpVGJaxi17RW5P0ISsCLqYMVn/RkVvyyOlex3CLrb4/Ue1YQyQmIDjojr7Xc5aZPFqkZR11KWXXGtMQLlQJr0V8AptDGVcW8frWvAVhHjG4MJuYlLHkiMCDTNXKY3ISkrihl7kgFPfAY5R0sRIME1c7bk746tgtQiv6eAiMN91h0+XNCUryGjbGKa+l211eCTp+Zx7tQR2ZilEdli6nbQDq37gBOspeMenO02GD/PQoSrQRLuq3UQmeRyj0Ap6GLWSyMd+NHVwitDWxCqbdAUT5pEa0dAV7+HGionBQLCpYiHHIsmVCkkevNRXNktY+rfvKoBxXm3l9joXQvwkmKb0qlffQSals/qCXdev/OA9EJapWhu91gaLsNu2a0qB6cT5bUCe5Pt49bOyok3JCFqjMsNIYIfFpPo7Pq/9aeMRcRbA7/j1/sUzXp1H+rXJ11yGmdlNrmd/masOnb+up8z+hvOY8ui8/Arta1mEIAdSxX9nbs7PLzAitgOxnKhjuRRI1UV+xEIFot3N5MxZe4xF2S1VCfeUP9IPsNKBGD00gyadwy9QTg47OrWlgVOwKOZ1+njnZW96xyqcAEVq8RxJ82r5aZKWumqVaqEayES7zNlyyee6zl0LcG2XkijeBAfT3aljfKXYzaKYYj5Tiep1IgetuXshwrOG+sEC+tDtAJ5F+WModk+1HOAfMCV+ilFRc8X+oUqc00VLkktZCJm0Yblmvqv1Q/MssBufVDY+TGx6Cqf0Z70x9sWwcr0WjraDXzK/4eAebSGyk9bC4daXsWyeZ9w96GTHNdmK3+h0JxrFb+IMJX6bMXKsy9jbuPctHMgrJWKSII6K5cWM/fEQIWoToYD+HZd6IOLZjqUwlkSSvQsvBwRyJDDVaBNULC20BMsPBL93FQKrxi6G1P7zBaJNBOgAAAAAAAAAAAAAAARVhJRroAAABFeGlmAABJSSoACAAAAAYAEgEDAAEAAAABAAAAGgEFAAEAAABWAAAAGwEFAAEAAABeAAAAKAEDAAEAAAACAAAAEwIDAAEAAAABAAAAaYcEAAEAAABmAAAAAAAAAEgAAAABAAAASAAAAAEAAAAGAACQBwAEAAAAMDIxMAGRBwAEAAAAAQIDAACgBwAEAAAAMDEwMAGgAwABAAAA//8AAAKgBAABAAAA0AIAAAOgBAABAAAA9wEAAAAAAAA=;" vertex="1" parent="1">
                    <mxGeometry x="199" y="80" width="429.42" height="300" as="geometry"/>
                </mxCell>
                <mxCell id="3" value="&lt;h1 style=&quot;box-sizing: inherit; margin: 1.19em 0px 32px; font-family: sohne, &amp;quot;Helvetica Neue&amp;quot;, Helvetica, Arial, sans-serif; color: rgb(36, 36, 36); line-height: 52px; letter-spacing: -0.011em; font-size: 42px; text-align: start; background-color: rgb(255, 255, 255);&quot; data-selectable-paragraph=&quot;&quot; data-testid=&quot;storyTitle&quot; class=&quot;pw-post-title fo fp fq bf fr fs ft fu fv fw fx fy fz ga gb gc gd ge gf gg gh gi gj gk gl gm gn go gp gq bk&quot; id=&quot;5766&quot;&gt;&lt;br&gt;&lt;/h1&gt;" style="text;html=1;align=center;verticalAlign=middle;resizable=0;points=[];autosize=1;strokeColor=none;fillColor=none;" vertex="1" parent="1">
                    <mxGeometry x="560" y="30" width="20" height="150" as="geometry"/>
                </mxCell>
                <mxCell id="4" value="&lt;font style=&quot;font-size: 24px;&quot;&gt;Containerized Backend with Flask and PostgreSQL&lt;/font&gt;" style="text;html=1;align=center;verticalAlign=middle;resizable=0;points=[];autosize=1;strokeColor=none;fillColor=none;" vertex="1" parent="1">
                    <mxGeometry x="129" y="15" width="570" height="40" as="geometry"/>
                </mxCell>
            </root>
        </mxGraphModel>
    </diagram>
</mxfile>